<svg xmlns="http://www.w3.org/2000/svg" viewBox="0 0 242.8 40.29"><defs><style>.a{fill:#d4aa38;}</style></defs><path class="a" d="M4.81,37.11V27.58H.93V26.3h9.34v1.28H6.37v9.53Z"/><path class="a" d="M15.43,36.14a5.42,5.42,0,0,1-1.55.89,4.92,4.92,0,0,1-1.6.26,3.31,3.31,0,0,1-2.16-.63A2.12,2.12,0,0,1,9.65,34a2.27,2.27,0,0,1,.75-.76,3.45,3.45,0,0,1,1-.43,9.89,9.89,0,0,1,1.29-.2,14.43,14.43,0,0,0,2.58-.46c0-.18,0-.3,0-.35a1.4,1.4,0,0,0-.41-1.14,2.58,2.58,0,0,0-1.65-.45,2.73,2.73,0,0,0-1.51.33A2,2,0,0,0,11,31.69l-1.41-.18a3,3,0,0,1,.63-1.34,2.8,2.8,0,0,1,1.28-.79,6,6,0,0,1,1.94-.28,5.4,5.4,0,0,1,1.77.24,2.31,2.31,0,0,1,1,.59,2.12,2.12,0,0,1,.45.9,6.86,6.86,0,0,1,.07,1.23v1.77a17.76,17.76,0,0,0,.09,2.34,2.8,2.8,0,0,0,.37.94H15.72A2.63,2.63,0,0,1,15.43,36.14Zm-.12-3a11.53,11.53,0,0,1-2.37.5,5.89,5.89,0,0,0-1.26.27,1.24,1.24,0,0,0-.57.43,1.1,1.1,0,0,0,.24,1.51,2,2,0,0,0,1.28.36,3.15,3.15,0,0,0,1.49-.34,2.19,2.19,0,0,0,1-.92,3,3,0,0,0,.23-1.32Z"/><path class="a" d="M19,27.83V26.3h1.45v1.53Zm0,9.28V29.28h1.45v7.83Z"/><path class="a" d="M24.25,37.11l-2.62-7.83h1.5l1.36,4.52.5,1.68c0-.08.17-.62.45-1.61l1.35-4.59h1.49l1.28,4.54.43,1.5.49-1.51,1.46-4.53h1.41l-2.67,7.83H29.17l-1.35-4.69-.33-1.33-1.73,6Z"/><path class="a" d="M40.13,36.14a5.29,5.29,0,0,1-1.55.89,4.82,4.82,0,0,1-1.59.26,3.27,3.27,0,0,1-2.16-.63,2,2,0,0,1-.76-1.61A2,2,0,0,1,34.35,34a2.27,2.27,0,0,1,.75-.76,3.56,3.56,0,0,1,1-.43,10.5,10.5,0,0,1,1.29-.2A14.09,14.09,0,0,0,40,32.14c0-.18,0-.3,0-.35a1.4,1.4,0,0,0-.41-1.14A2.58,2.58,0,0,0,38,30.2a2.75,2.75,0,0,0-1.51.33,2,2,0,0,0-.72,1.16l-1.41-.18A3.15,3.15,0,0,1,35,30.17a2.8,2.8,0,0,1,1.28-.79,6.05,6.05,0,0,1,1.94-.28,5.5,5.5,0,0,1,1.78.24,2.27,2.27,0,0,1,1,.59,2.12,2.12,0,0,1,.45.9,6.86,6.86,0,0,1,.07,1.23v1.77a15.51,15.51,0,0,0,.1,2.34,2.77,2.77,0,0,0,.36.94H40.42A2.63,2.63,0,0,1,40.13,36.14Zm-.12-3a11.26,11.26,0,0,1-2.36.5,5.87,5.87,0,0,0-1.27.27,1.24,1.24,0,0,0-.57.43,1.1,1.1,0,0,0,.24,1.51,2,2,0,0,0,1.28.36,3.12,3.12,0,0,0,1.49-.34,2.19,2.19,0,0,0,1-.92A3,3,0,0,0,40,33.67Z"/><path class="a" d="M43.72,37.11V29.28H45v1.11a3.16,3.16,0,0,1,2.72-1.29,3.9,3.9,0,0,1,1.42.26,2.21,2.21,0,0,1,1,.66,2.37,2.37,0,0,1,.45,1,6.38,6.38,0,0,1,.08,1.29v4.81H49.21V32.35A3.41,3.41,0,0,0,49,31.13a1.32,1.32,0,0,0-.6-.64,2,2,0,0,0-1-.24,2.48,2.48,0,0,0-1.6.54,2.54,2.54,0,0,0-.67,2v4.28Z"/><path class="a" d="M57.9,37.11V26.3h1.56V37.11Z"/><path class="a" d="M62,37.11V29.28h1.3v1.11A3.17,3.17,0,0,1,66,29.1a3.82,3.82,0,0,1,1.42.26,2.31,2.31,0,0,1,1,.66,2.64,2.64,0,0,1,.45,1A7.24,7.24,0,0,1,69,32.3v4.81H67.51V32.35a3.19,3.19,0,0,0-.17-1.22,1.32,1.32,0,0,0-.6-.64,2,2,0,0,0-1-.24,2.48,2.48,0,0,0-1.6.54,2.51,2.51,0,0,0-.67,2v4.28Z"/><path class="a" d="M70.6,34.77l1.43-.2a1.81,1.81,0,0,0,.67,1.21,2.49,2.49,0,0,0,1.54.42,2.4,2.4,0,0,0,1.48-.38A1.07,1.07,0,0,0,76.2,35a.8.8,0,0,0-.42-.71,6.45,6.45,0,0,0-1.48-.45,13.73,13.73,0,0,1-2.21-.64,2,2,0,0,1-.93-.74,1.88,1.88,0,0,1-.32-1,1.93,1.93,0,0,1,.26-1,2.09,2.09,0,0,1,.71-.74,3.06,3.06,0,0,1,.92-.39A4.6,4.6,0,0,1,74,29.1a5.31,5.31,0,0,1,1.77.27,2.32,2.32,0,0,1,1.12.72,2.64,2.64,0,0,1,.5,1.21L76,31.48a1.38,1.38,0,0,0-.56-.95,2.19,2.19,0,0,0-1.3-.34,2.43,2.43,0,0,0-1.42.31.84.84,0,0,0-.43.7.69.69,0,0,0,.18.47A1.22,1.22,0,0,0,73,32c.15,0,.57.17,1.28.34a18.4,18.4,0,0,1,2.14.62,2.14,2.14,0,0,1,1,.69,1.86,1.86,0,0,1,.35,1.14,2.11,2.11,0,0,1-.42,1.25,2.75,2.75,0,0,1-1.22.91,4.85,4.85,0,0,1-1.8.32,4.23,4.23,0,0,1-2.54-.64A2.89,2.89,0,0,1,70.6,34.77Z"/><path class="a" d="M85,37.11V36a3.21,3.21,0,0,1-2.71,1.33A3.7,3.7,0,0,1,80.88,37a2.1,2.1,0,0,1-1.41-1.65,6.07,6.07,0,0,1-.09-1.24V29.28h1.45v4.34a7.17,7.17,0,0,0,.08,1.4,1.41,1.41,0,0,0,.58.83,2,2,0,0,0,1.09.29,2.6,2.6,0,0,0,1.23-.3,1.8,1.8,0,0,0,.81-.83,4.1,4.1,0,0,0,.23-1.53v-4.2H86.3v7.83Z"/><path class="a" d="M88.55,37.11V29.28h1.3v1.19a3.29,3.29,0,0,1,.92-1.1,1.68,1.68,0,0,1,.93-.27,3,3,0,0,1,1.49.43l-.5,1.23a2.23,2.23,0,0,0-1.06-.29,1.47,1.47,0,0,0-1.39,1A4.8,4.8,0,0,0,90,33v4.1Z"/><path class="a" d="M99.62,36.14a5.42,5.42,0,0,1-1.55.89,4.82,4.82,0,0,1-1.59.26,3.27,3.27,0,0,1-2.16-.63,2,2,0,0,1-.76-1.61A1.94,1.94,0,0,1,93.85,34a2.15,2.15,0,0,1,.74-.76,3.56,3.56,0,0,1,1-.43,10.5,10.5,0,0,1,1.29-.2,14.09,14.09,0,0,0,2.58-.46c0-.18,0-.3,0-.35a1.4,1.4,0,0,0-.41-1.14,2.58,2.58,0,0,0-1.65-.45,2.75,2.75,0,0,0-1.51.33,2,2,0,0,0-.72,1.16l-1.41-.18a3.15,3.15,0,0,1,.63-1.34,2.8,2.8,0,0,1,1.28-.79,6.05,6.05,0,0,1,1.94-.28,5.4,5.4,0,0,1,1.77.24,2.25,2.25,0,0,1,1,.59,2,2,0,0,1,.45.9,6.86,6.86,0,0,1,.07,1.23v1.77a17.76,17.76,0,0,0,.09,2.34,3,3,0,0,0,.37.94H99.91A2.63,2.63,0,0,1,99.62,36.14Zm-.12-3a11.26,11.26,0,0,1-2.36.5,5.87,5.87,0,0,0-1.27.27,1.24,1.24,0,0,0-.57.43,1.1,1.1,0,0,0,.24,1.51,2,2,0,0,0,1.28.36,3.12,3.12,0,0,0,1.49-.34,2.19,2.19,0,0,0,1-.92,3,3,0,0,0,.23-1.32Z"/><path class="a" d="M103.21,37.11V29.28h1.3v1.11a3.16,3.16,0,0,1,2.72-1.29,3.8,3.8,0,0,1,1.41.26,2.19,2.19,0,0,1,1,.66,2.37,2.37,0,0,1,.45,1,6.38,6.38,0,0,1,.08,1.29v4.81H108.7V32.35a3.41,3.41,0,0,0-.17-1.22,1.37,1.37,0,0,0-.6-.64,2,2,0,0,0-1-.24,2.48,2.48,0,0,0-1.6.54,2.54,2.54,0,0,0-.67,2v4.28Z"/><path class="a" d="M117.93,34.24l1.42.17a3.25,3.25,0,0,1-1.19,2.11,3.66,3.66,0,0,1-2.36.77,3.84,3.84,0,0,1-2.82-1,4.06,4.06,0,0,1-1.06-3,5,5,0,0,1,.46-2.21,3,3,0,0,1,1.39-1.43,4.44,4.44,0,0,1,2-.48,3.78,3.78,0,0,1,2.28.65,3,3,0,0,1,1.13,1.83l-1.41.2a2.09,2.09,0,0,0-.71-1.19,2,2,0,0,0-1.23-.4,2.35,2.35,0,0,0-1.78.72,3.21,3.21,0,0,0-.68,2.28,3.32,3.32,0,0,0,.65,2.29,2.24,2.24,0,0,0,1.73.72,2.14,2.14,0,0,0,1.42-.48A2.29,2.29,0,0,0,117.93,34.24Z"/><path class="a" d="M126.44,34.59l1.49.17a3.28,3.28,0,0,1-1.31,1.86,4.14,4.14,0,0,1-2.44.67,4.08,4.08,0,0,1-3-1.06,4,4,0,0,1-1.1-3,4.11,4.11,0,0,1,1.11-3.07,4,4,0,0,1,2.88-1.09,3.85,3.85,0,0,1,2.8,1.07,4,4,0,0,1,1.08,3c0,.08,0,.2,0,.35h-6.36a2.85,2.85,0,0,0,.79,2,2.48,2.48,0,0,0,1.79.69,2.29,2.29,0,0,0,1.35-.39A2.49,2.49,0,0,0,126.44,34.59Zm-4.75-2.15h4.76a2.48,2.48,0,0,0-.54-1.48,2.31,2.31,0,0,0-1.8-.77,2.4,2.4,0,0,0-1.67.62A2.32,2.32,0,0,0,121.69,32.44Z"/><path class="a" d="M140,32.87V31.6h5v4a9,9,0,0,1-2.38,1.26,7.59,7.59,0,0,1-2.5.42,7.14,7.14,0,0,1-3.16-.68,4.71,4.71,0,0,1-2.14-2,5.81,5.81,0,0,1-.72-2.88,6.22,6.22,0,0,1,.72-3,4.52,4.52,0,0,1,2.07-2,7,7,0,0,1,3.1-.66,6.53,6.53,0,0,1,2.32.38A3.8,3.8,0,0,1,144,27.55a4.75,4.75,0,0,1,.89,1.77l-1.41.36a3.59,3.59,0,0,0-.66-1.3,2.61,2.61,0,0,0-1.12-.76,4.45,4.45,0,0,0-1.62-.28,5.22,5.22,0,0,0-1.86.3,3.6,3.6,0,0,0-1.25.78,3.84,3.84,0,0,0-.75,1.07,5.28,5.28,0,0,0-.45,2.18,4.84,4.84,0,0,0,.55,2.42,3.28,3.28,0,0,0,1.57,1.44,5.22,5.22,0,0,0,2.21.47,5.66,5.66,0,0,0,2-.35,5.27,5.27,0,0,0,1.46-.77v-2Z"/><path class="a" d="M152.73,37.11V36A3.21,3.21,0,0,1,150,37.29a3.62,3.62,0,0,1-1.41-.27,2.2,2.2,0,0,1-1-.67,2.17,2.17,0,0,1-.45-1,6.07,6.07,0,0,1-.09-1.24V29.28h1.45v4.34a8.11,8.11,0,0,0,.08,1.4,1.46,1.46,0,0,0,.58.83,2,2,0,0,0,1.1.29,2.59,2.59,0,0,0,1.22-.3,1.8,1.8,0,0,0,.81-.83,3.9,3.9,0,0,0,.23-1.53v-4.2H154v7.83Z"/><path class="a" d="M161.86,36.14a5.42,5.42,0,0,1-1.55.89,4.92,4.92,0,0,1-1.6.26,3.31,3.31,0,0,1-2.16-.63,2.12,2.12,0,0,1-.47-2.67,2.27,2.27,0,0,1,.75-.76,3.45,3.45,0,0,1,1-.43,9.89,9.89,0,0,1,1.29-.2,14.26,14.26,0,0,0,2.58-.46v-.35a1.37,1.37,0,0,0-.41-1.14,2.53,2.53,0,0,0-1.64-.45,2.73,2.73,0,0,0-1.51.33,2,2,0,0,0-.72,1.16L156,31.51a3.16,3.16,0,0,1,.64-1.34,2.75,2.75,0,0,1,1.28-.79,6,6,0,0,1,1.94-.28,5.44,5.44,0,0,1,1.77.24,2.31,2.31,0,0,1,1,.59,2.12,2.12,0,0,1,.45.9,6.86,6.86,0,0,1,.07,1.23v1.77a17.76,17.76,0,0,0,.09,2.34,2.8,2.8,0,0,0,.37.94h-1.51A2.63,2.63,0,0,1,161.86,36.14Zm-.12-3a11.53,11.53,0,0,1-2.37.5,5.89,5.89,0,0,0-1.26.27,1.14,1.14,0,0,0-.57.43,1.1,1.1,0,0,0,.24,1.51,2,2,0,0,0,1.28.36,3.15,3.15,0,0,0,1.49-.34,2.12,2.12,0,0,0,.95-.92,2.88,2.88,0,0,0,.24-1.32Z"/><path class="a" d="M165.43,37.11V29.28h1.3v1.19a3.18,3.18,0,0,1,.92-1.1,1.68,1.68,0,0,1,.93-.27,3,3,0,0,1,1.49.43l-.5,1.23a2.26,2.26,0,0,0-1.06-.29,1.46,1.46,0,0,0-.86.27,1.35,1.35,0,0,0-.53.72,4.54,4.54,0,0,0-.25,1.55v4.1Z"/><path class="a" d="M176.5,36.14A5.42,5.42,0,0,1,175,37a4.88,4.88,0,0,1-1.6.26,3.31,3.31,0,0,1-2.16-.63,2.12,2.12,0,0,1-.47-2.67,2.27,2.27,0,0,1,.75-.76,3.45,3.45,0,0,1,1-.43,9.89,9.89,0,0,1,1.29-.2,14.26,14.26,0,0,0,2.58-.46v-.35a1.37,1.37,0,0,0-.41-1.14,2.53,2.53,0,0,0-1.64-.45,2.73,2.73,0,0,0-1.51.33,2,2,0,0,0-.72,1.16l-1.42-.18a3.16,3.16,0,0,1,.64-1.34,2.8,2.8,0,0,1,1.28-.79,6,6,0,0,1,1.94-.28,5.44,5.44,0,0,1,1.77.24,2.31,2.31,0,0,1,1,.59,2.12,2.12,0,0,1,.45.9,8,8,0,0,1,.07,1.23v1.77a17.76,17.76,0,0,0,.09,2.34,3,3,0,0,0,.37.94h-1.51A2.63,2.63,0,0,1,176.5,36.14Zm-.12-3a11.53,11.53,0,0,1-2.37.5,5.89,5.89,0,0,0-1.26.27,1.14,1.14,0,0,0-.57.43,1.1,1.1,0,0,0-.2.63,1.06,1.06,0,0,0,.44.88,2,2,0,0,0,1.28.36,3.15,3.15,0,0,0,1.49-.34,2.12,2.12,0,0,0,.95-.92,2.88,2.88,0,0,0,.24-1.32Z"/><path class="a" d="M180.08,37.11V29.28h1.3v1.11a3.17,3.17,0,0,1,2.72-1.29,3.82,3.82,0,0,1,1.42.26,2.25,2.25,0,0,1,1,.66,2.64,2.64,0,0,1,.45,1A7.24,7.24,0,0,1,187,32.3v4.81h-1.45V32.35a3.45,3.45,0,0,0-.16-1.22,1.42,1.42,0,0,0-.6-.64,2.07,2.07,0,0,0-1-.24,2.48,2.48,0,0,0-1.6.54,2.51,2.51,0,0,0-.67,2v4.28Z"/><path class="a" d="M192.4,35.92l.21,1.17a5.75,5.75,0,0,1-1.1.12,2.57,2.57,0,0,1-1.22-.23,1.31,1.31,0,0,1-.61-.6,4.26,4.26,0,0,1-.18-1.56V30.31h-1.06v-1h1.06V27.34l1.44-.8v2.74h1.46v1h-1.46v4.58a2.13,2.13,0,0,0,.08.73.57.57,0,0,0,.25.26,1.06,1.06,0,0,0,.49.1A4.46,4.46,0,0,0,192.4,35.92Z"/><path class="a" d="M193.75,40.13l-.16-1.25a3.45,3.45,0,0,0,.83.12,1.67,1.67,0,0,0,.77-.15,1.33,1.33,0,0,0,.47-.41,5.82,5.82,0,0,0,.44-1l.13-.32L193,29.28h1.55l1.78,4.53a18.49,18.49,0,0,1,.62,1.82,17.85,17.85,0,0,1,.59-1.79l1.83-4.56h1.45l-3.25,8a15.61,15.61,0,0,1-.81,1.78,2.69,2.69,0,0,1-.89,1,2.18,2.18,0,0,1-1.19.31A3.36,3.36,0,0,1,193.75,40.13Z"/><path class="a" d="M206.88,37.11V26.3h8v1.28h-6.39v3.34H214V32.2h-5.54v4.91Z"/><path class="a" d="M222.27,37.11V36a3.2,3.2,0,0,1-2.71,1.33,3.69,3.69,0,0,1-1.41-.27,2.2,2.2,0,0,1-1-.67,2.4,2.4,0,0,1-.45-1,6.07,6.07,0,0,1-.09-1.24V29.28h1.45v4.34a6.92,6.92,0,0,0,.09,1.4,1.37,1.37,0,0,0,.58.83,2,2,0,0,0,1.09.29,2.63,2.63,0,0,0,1.23-.3,1.83,1.83,0,0,0,.8-.83,3.88,3.88,0,0,0,.24-1.53v-4.2h1.45v7.83Z"/><path class="a" d="M225.83,37.11V29.28h1.3v1.11a3.17,3.17,0,0,1,2.72-1.29,3.82,3.82,0,0,1,1.42.26,2.25,2.25,0,0,1,1,.66,2.64,2.64,0,0,1,.45,1,7.24,7.24,0,0,1,.08,1.29v4.81h-1.44V32.35a3.41,3.41,0,0,0-.17-1.22,1.42,1.42,0,0,0-.6-.64,2.07,2.07,0,0,0-1-.24,2.48,2.48,0,0,0-1.6.54,2.51,2.51,0,0,0-.67,2v4.28Z"/><path class="a" d="M240.53,37.11v-1a2.72,2.72,0,0,1-2.39,1.17,3.65,3.65,0,0,1-1.88-.52,3.48,3.48,0,0,1-1.32-1.44,4.57,4.57,0,0,1-.47-2.13,5.26,5.26,0,0,1,.42-2.13,3.2,3.2,0,0,1,1.28-1.46,3.64,3.64,0,0,1,1.91-.51,3,3,0,0,1,1.37.3,2.83,2.83,0,0,1,1,.78V26.3h1.44V37.11ZM236,33.2a3.14,3.14,0,0,0,.7,2.25,2.14,2.14,0,0,0,1.63.75,2.11,2.11,0,0,0,1.61-.72,3.08,3.08,0,0,0,.66-2.17,3.46,3.46,0,0,0-.67-2.36,2.16,2.16,0,0,0-1.67-.75,2.08,2.08,0,0,0-1.61.72A3.36,3.36,0,0,0,236,33.2Z"/><polygon class="a" points="8.42 13.99 0 21.68 11.06 21.68 11.06 13.99 8.42 13.99"/><path class="a" d="M35,12.21,22.68,1,10.36,12.21h5.13V14H13v7.69H16.4V12.21h1.91v9.47H25a5.83,5.83,0,0,1-2.74-.63,4.88,4.88,0,0,1-2.62-4.29,4.49,4.49,0,0,1,1.3-3.2,5.3,5.3,0,0,1,4-1.62,6.19,6.19,0,0,1,2.41.45,5.4,5.4,0,0,1,1.86,1.29l-1.33,1.23a4,4,0,0,0-2.93-1.25,3.52,3.52,0,0,0-2.45.91,2.92,2.92,0,0,0-1,2.21,3,3,0,0,0,1,2.27A3.56,3.56,0,0,0,25,20a3.2,3.2,0,0,0,1.65-.39,2.71,2.71,0,0,0,1.08-1.2H24.89V16.74h5l0,.39a4.34,4.34,0,0,1-.68,2.31,4.4,4.4,0,0,1-1.74,1.66,5.14,5.14,0,0,1-2.51.58H31V12.21Z"/><polygon class="a" points="36.92 13.97 32.92 13.97 32.92 15.69 36.66 15.69 36.66 17.41 32.92 17.41 32.92 21.68 45.35 21.68 36.92 13.97"/><path class="a" d="M57.47,3.92a.72.72,0,0,1-.36.31,2.19,2.19,0,0,1-.51.23l-.27.11c0,.23,0,.53-.07.89s0,.78,0,1.27A11.31,11.31,0,0,0,56.28,8c0,.36.08.65.13.88,0,.07,0,.2.07.38a2.84,2.84,0,0,1,.05.61.51.51,0,0,1-.18.44.44.44,0,0,1-.36,0l-.65-.22a2.08,2.08,0,0,1-.75-.44A1.22,1.22,0,0,1,54.16,9a2.17,2.17,0,0,1,0-.76c0-.12,0-.19.11-.21s.15,0,.28.18l.34.37c.11.1.19.16.24.16s.17-.08.23-.24a2,2,0,0,0,.09-.79c0-.37,0-.67,0-.9a4.11,4.11,0,0,1,0-.44,1.86,1.86,0,0,0-.48.49,6.4,6.4,0,0,1-.62.74.88.88,0,0,1-.73.34,1.21,1.21,0,0,1-.68-.31s0,.08,0,.14v.18c0,.07,0,.14,0,.19a.86.86,0,0,0,0,.13.7.7,0,0,0,.11.23c.06.07.11.15.18.22a.53.53,0,0,1,.1.28.88.88,0,0,1,0,.32.4.4,0,0,1-.23.17.5.5,0,0,1-.4-.06,1.47,1.47,0,0,1-.39-.26L52,9l-.38-.35a1.29,1.29,0,0,1-.33-.41c-.07-.14,0-.23.14-.27A2.49,2.49,0,0,1,52,7.86L52,7.73a2.59,2.59,0,0,1-.16-.3,1.6,1.6,0,0,1-.11-.29.19.19,0,0,1,0-.15l.07-.11.1-.15a.52.52,0,0,0,.06-.16,1,1,0,0,0,0-.14,2.5,2.5,0,0,0-.51.46,5.13,5.13,0,0,0-.61.82c-.22.34-.4.63-.55.88a6.15,6.15,0,0,1-.38.57,2.19,2.19,0,0,1-.61.55c-.21.12-.34.08-.39-.11A.8.8,0,0,1,49,9a1.33,1.33,0,0,1,.44-.49l.26-.22a2.49,2.49,0,0,0,.34-.4,3.49,3.49,0,0,0,.3-.45l.17-.32a1.91,1.91,0,0,1-.75.16A.4.4,0,0,1,49.37,7a.47.47,0,0,1,.08-.45q.15-.18.27-.18s0,0,0-.15a4.46,4.46,0,0,1-.15-.49,3.27,3.27,0,0,1-.11-.57.67.67,0,0,1,0-.31,3.06,3.06,0,0,0,.11-.46c0-.24.1-.54.19-.9a1.91,1.91,0,0,1,.32-.75.35.35,0,0,1,.34-.18l.17.07a.44.44,0,0,1,.18.14.44.44,0,0,1,.11.2.74.74,0,0,1,0,.19.8.8,0,0,0,.07.36.27.27,0,0,0,.28.16,1.67,1.67,0,0,0,.39,0A1.57,1.57,0,0,1,52,3.55a2.11,2.11,0,0,1,0-.32,1.34,1.34,0,0,0,0-.4.34.34,0,0,0-.19-.28.92.92,0,0,0-.33-.11c-.14,0-.22,0-.22-.1s.13-.13.38-.2A2.24,2.24,0,0,1,52.37,2a1.14,1.14,0,0,1,.49.08.35.35,0,0,1,.13.14.38.38,0,0,1,0,.24,1.47,1.47,0,0,1-.08.25.46.46,0,0,0-.06.18,5.9,5.9,0,0,0-.15.84A9.41,9.41,0,0,0,52.66,5c0,.49,0,.91,0,1.25s0,.63,0,.84a1.11,1.11,0,0,0,.45-.19,3.16,3.16,0,0,0,.67-.54,4.34,4.34,0,0,0,.57-.67,2.26,2.26,0,0,0,.27-.46,1.46,1.46,0,0,0-.42.08,3.49,3.49,0,0,1-.54.15.69.69,0,0,1-.5-.06,1.29,1.29,0,0,1-.33-.33.48.48,0,0,1-.05-.3.7.7,0,0,1,.25-.38.86.86,0,0,1,.42-.19.54.54,0,0,1,.31,0,.35.35,0,0,0,.24,0,1.88,1.88,0,0,0,.51-.17,4.26,4.26,0,0,0,.51-.24l.24-.14c0-.11,0-.28,0-.51a5.15,5.15,0,0,1,0-.83,1.43,1.43,0,0,1,.23-.73A.66.66,0,0,1,56,1.36c.09,0,.17.1.23.25a1.68,1.68,0,0,1,.12.66c0,.29,0,.53,0,.73a1.26,1.26,0,0,0,0,.38.55.55,0,0,0,.23,0H57a.47.47,0,0,1,.29.07.79.79,0,0,1,.22.18A.28.28,0,0,1,57.47,3.92ZM52,5.51V4L51.66,4a1.32,1.32,0,0,0-.35.15.74.74,0,0,0-.27.25,1.25,1.25,0,0,0-.13.26c0,.06,0,.1.07.11a1.19,1.19,0,0,0,.34,0,1.34,1.34,0,0,1,.37,0c.08,0,.13,0,.13.09a.42.42,0,0,1-.13.19,2.5,2.5,0,0,1-.38.3,3.52,3.52,0,0,1-.44.27l-.22.14a.86.86,0,0,0-.1.53c0,.14.15.17.38.11a3.09,3.09,0,0,0,.62-.25l.4-.22Z"/><path class="a" d="M67.42,6.63c0,.35,0,.77,0,1.24s0,.89,0,1.24,0,.64,0,.87a.65.65,0,0,1-.22.47c-.11.07-.27,0-.48-.25a4.81,4.81,0,0,1-.49-.65A1.74,1.74,0,0,0,66,9.2l-.44.05-.62.08-.63.09-.44.08a5,5,0,0,0-.8.21,2.43,2.43,0,0,1-.87.16.87.87,0,0,1-.72-.32,3.63,3.63,0,0,1-.52-.74,3.56,3.56,0,0,1-.34-.91,5.28,5.28,0,0,1-.14-1.42A8.65,8.65,0,0,1,60.54,5c.07-.41.12-.74.17-1a2.11,2.11,0,0,1,.07-.31,3.33,3.33,0,0,1,.2-.62,1.41,1.41,0,0,1,.3-.51c.1-.09.19-.13.26-.11a.63.63,0,0,0,.39,0,3.57,3.57,0,0,0,.7-.32l.7-.41.37-.22a5.72,5.72,0,0,1,.91-.26,3.68,3.68,0,0,1,1.44,0,1.69,1.69,0,0,1,1.14.59,1.49,1.49,0,0,1,.31.91c0,.17,0,.38,0,.62s0,.54,0,.87,0,.63,0,.88,0,.46,0,.62S67.41,6.27,67.42,6.63ZM64,8.52l-.1-.15-.09-.15a.41.41,0,0,1-.06-.11l-.19.07a3.05,3.05,0,0,1-.44.13c-.18,0-.28.06-.32,0s0-.07.06-.13A1.21,1.21,0,0,0,63.06,8a.25.25,0,0,0,0-.26,1.5,1.5,0,0,0-.18-.24.8.8,0,0,1-.14-.22l-.09,0-.15,0-.14.05-.09,0a3.81,3.81,0,0,0-.05.88.56.56,0,0,0,.36.54,1.38,1.38,0,0,0,.78,0l.77-.21ZM66.8,5.1c0-.26,0-.59,0-1a7.58,7.58,0,0,0,0-1,3.93,3.93,0,0,0-.09-.63,1,1,0,0,0-.54-.63,1.92,1.92,0,0,0-1.28-.1,4.07,4.07,0,0,0-1.36.49,3.4,3.4,0,0,0-.72.51,2.08,2.08,0,0,0-.41.71,3.33,3.33,0,0,0-.18,1.18c0,.47,0,.88,0,1.24a6.21,6.21,0,0,1,0,.83l.39-.06a3.67,3.67,0,0,0,.56-.13,2.43,2.43,0,0,0,.51-.24,2,2,0,0,0,.33-.26A.36.36,0,0,0,63.81,6a.86.86,0,0,0-.41.16.83.83,0,0,1-.43.15.41.41,0,0,1-.33-.15s0-.07,0-.13a.83.83,0,0,1,.08-.24.85.85,0,0,0,.09-.25.27.27,0,0,0,0-.16,1.33,1.33,0,0,1-.21-.5.83.83,0,0,1,.11-.6,1.71,1.71,0,0,1,.4-.51l.38-.34a.36.36,0,0,1-.2-.24c0-.09,0-.19.17-.29a2.28,2.28,0,0,1,.41-.21l.27-.11a2.08,2.08,0,0,1,.1-.3A.39.39,0,0,1,64.42,2a.19.19,0,0,1,.24.07,1.08,1.08,0,0,1,.16.3,1.18,1.18,0,0,1,.43.1.15.15,0,0,1,.09.24A.64.64,0,0,1,65,3a1.77,1.77,0,0,1-.37.14s0,.07,0,.11a.2.2,0,0,0,0,.11.06.06,0,0,0,.08,0,.21.21,0,0,0,.11-.05,2.25,2.25,0,0,1,.56-.23.61.61,0,0,1,.54.06c.13.1.14.23,0,.41a1.7,1.7,0,0,1-.45.48.57.57,0,0,0-.13.14.28.28,0,0,0,0,.2,1.57,1.57,0,0,0,.12.19.63.63,0,0,1,.09.14.62.62,0,0,1,.3,0c.08,0,.09.1,0,.21a1.16,1.16,0,0,1-.22.31l-.21.17a.58.58,0,0,0,.13.29.6.6,0,0,0,.36.15,1.48,1.48,0,0,0,.43,0l.29-.08C66.77,5.58,66.78,5.37,66.8,5.1Zm-3.25-.62a.28.28,0,0,0-.13.2.49.49,0,0,0,0,.27c0,.08.07.15.1.2A.69.69,0,0,0,63.74,5a.17.17,0,0,0,0-.18,1.85,1.85,0,0,0,0-.23.5.5,0,0,1,0-.21A.65.65,0,0,0,63.55,4.48Zm.55-.83V3.38a1.47,1.47,0,0,0-.28.2.44.44,0,0,0-.16.23q0,.1.12.06a1.76,1.76,0,0,0,.32-.15Zm.7,3-.38.1-.38.1-.27.07a2.06,2.06,0,0,1,.37.1.4.4,0,0,1,.25.24.32.32,0,0,1-.08.33,1.16,1.16,0,0,1-.29.26,1.92,1.92,0,0,0,.64.26.32.32,0,0,0,.42-.22,1.45,1.45,0,0,0,.06-.67c0-.26,0-.47-.07-.64Zm.27-.57V5.74a2.85,2.85,0,0,0-.28.22.83.83,0,0,0-.23.24c0,.07,0,.1.11.08a1.52,1.52,0,0,0,.4-.11Zm-.48-.61v.26l.31-.29a1.29,1.29,0,0,0,.22-.31c0-.08,0-.09-.14,0a2.17,2.17,0,0,0-.39.29ZM64.74,4a.58.58,0,0,0,0,.1l0,.1s0,0,0,.06a1.48,1.48,0,0,0,.3-.31c.09-.12.13-.22.1-.28s-.09-.06-.19,0a1.16,1.16,0,0,0-.29.25Zm1.75,2.24-.36,0a1.28,1.28,0,0,0-.34.09.47.47,0,0,0-.15.08v.35c0,.14,0,.31,0,.5s0,.35,0,.48a2.68,2.68,0,0,0,.08.33.35.35,0,0,0,.13.2.81.81,0,0,0,.31.17,1.93,1.93,0,0,1,.31.13.37.37,0,0,1,.16.13,1.88,1.88,0,0,0,0-.27v-.9c0-.41,0-.73,0-1s0-.36,0-.39Z"/><path class="a" d="M50.13,21.46c-.08,0-.17-.06-.28-.18a1.81,1.81,0,0,1-.24-.34l-.09-.18a3.79,3.79,0,0,1-.19-.54,1.71,1.71,0,0,1,0-.6,2.38,2.38,0,0,1,.17-.57c.09-.17.16-.33.23-.47a1.27,1.27,0,0,0,.1-.67,1.65,1.65,0,0,0-.28-.75,2.73,2.73,0,0,1-.34-.65.72.72,0,0,1,0-.5c0-.08.08-.12.15-.12s.15,0,.24.17.18.23.25.33a.78.78,0,0,0,.16.2,1.34,1.34,0,0,1,.48.68,1.16,1.16,0,0,1-.15.86A3.7,3.7,0,0,0,50,19a1,1,0,0,0,.07.73.92.92,0,0,0,.12-.16,1.68,1.68,0,0,0,.19-.32c.07-.14.12-.26.16-.35l.09-.2c0-.08.1-.17.18-.3a4.28,4.28,0,0,1,.32-.4c.14-.14.26-.27.37-.36l.27-.24c0,.18-.07.45-.13.8s-.17.8-.31,1.31a5.51,5.51,0,0,1-.48,1.22,2.28,2.28,0,0,1-.48.61A.21.21,0,0,1,50.13,21.46Zm0-6.07a1.36,1.36,0,0,0,0-.4.79.79,0,0,0-.14-.34l-.21-.27a.45.45,0,0,1,.13-.52,1.23,1.23,0,0,1,1.59.24.7.7,0,0,1,0,.67.56.56,0,0,1-.17.38.89.89,0,0,1-.49.19,1.35,1.35,0,0,0-.52.14.45.45,0,0,0-.25.29C50.1,15.65,50.11,15.53,50.13,15.39Zm7.33,5.28a.69.69,0,0,1-.15.24.48.48,0,0,1-.31.15.88.88,0,0,1-.36,0l-.27,0a.8.8,0,0,0,.14-.24.4.4,0,0,0,0-.32.49.49,0,0,0-.19-.27,1,1,0,0,0-.22-.14,1.46,1.46,0,0,0-.77,0,10.38,10.38,0,0,0-1.36.46,7.71,7.71,0,0,1-1.29.42c-.31.06-.52,0-.62-.05a.56.56,0,0,1-.1-.52,2.62,2.62,0,0,1,.49-.93c.29-.37.53-.67.73-.88s.34-.35.4-.42l-.4.17a4.35,4.35,0,0,1-.67.23.77.77,0,0,1-.58,0,.43.43,0,0,1-.21-.35c0-.15,0-.28.22-.39a2.61,2.61,0,0,1,.82-.24,1.61,1.61,0,0,0,.79-.27.43.43,0,0,0,.15-.47.41.41,0,0,0-.24-.24,1.19,1.19,0,0,0-.55,0,1.66,1.66,0,0,1-.61,0,.67.67,0,0,1-.37-.28.63.63,0,0,1,0-.49.59.59,0,0,1,.51-.23,5.28,5.28,0,0,1,.68,0,.76.76,0,0,0,.4,0c0-.12,0-.28,0-.47s0-.43,0-.7,0-.49,0-.68,0-.35,0-.48a1.57,1.57,0,0,1,.13-.26.58.58,0,0,1,.26-.23.32.32,0,0,1,.3,0,.71.71,0,0,1,.23.19,1.81,1.81,0,0,1,.21.4,2.5,2.5,0,0,1,.15.65,3.28,3.28,0,0,1,0,.68c0,.19,0,.34,0,.44s.12,0,.29,0,.39-.09.68-.16a1.29,1.29,0,0,1,.62,0c.13,0,.2.1.2.21a.74.74,0,0,1-.27.48,3.2,3.2,0,0,1-.72.48,2.13,2.13,0,0,0-.67.52.69.69,0,0,0-.16.53l.21-.09.3-.11.3-.11.23-.09a.61.61,0,0,1,.44-.14.72.72,0,0,1,.53.23q.23.23.06.39a.79.79,0,0,1-.5.19,3.18,3.18,0,0,0-.76.23,3,3,0,0,0-.87.65,5.17,5.17,0,0,0-.71.88l-.42.65.29,0a1.88,1.88,0,0,0,.4,0,2.15,2.15,0,0,0,.4-.09l.29-.1.07,0,.12,0,.13-.05h.08l-.22-.3A.73.73,0,0,1,55,18.7a.27.27,0,0,1,.19-.29,1.63,1.63,0,0,1,.46-.1,1.54,1.54,0,0,1,.63.14,1.83,1.83,0,0,1,.72.64,2.31,2.31,0,0,1,.48,1.59Z"/><path class="a" d="M68.33,20a4.3,4.3,0,0,1-.92.3,3.62,3.62,0,0,1-1,.09.93.93,0,0,1-.46-.13l-.08,0-.14-.08L65.59,20l-.14-.12q-.24-.22-.57-.57c-.22-.23-.47-.52-.74-.85s-.52-.63-.72-.88-.38-.45-.53-.61c-.12.13-.27.3-.42.49s-.33.43-.51.7-.32.5-.45.72-.23.39-.31.54a2.44,2.44,0,0,1-.36.41,1,1,0,0,1-.59.26.45.45,0,0,1-.47-.21,1.11,1.11,0,0,1-.14-.54c0-.07,0-.14,0-.24a1.37,1.37,0,0,1,0-.29.39.39,0,0,1,.09-.26,1.12,1.12,0,0,1,.2-.18,2.65,2.65,0,0,0,.64-.6,5.89,5.89,0,0,0,.66-1.1c.22-.45.41-.84.58-1.17a4.32,4.32,0,0,1,.49-.77l.11-.12.14-.18a1.77,1.77,0,0,0,.14-.17l.11-.13a1.32,1.32,0,0,1,.35-.29.67.67,0,0,1,.52-.09.58.58,0,0,1,.42.3,1.31,1.31,0,0,1,.16.47.89.89,0,0,1-.07.4,1.64,1.64,0,0,1-.29.5c-.15.18-.27.34-.37.47a1.41,1.41,0,0,0-.2.34c.27.19.58.43,1,.74s.81.63,1.31,1a9.28,9.28,0,0,0,1.41.84,7.11,7.11,0,0,0,1.13.4l.09,0,.13,0,.12.06.08.05,0,0,0,0,0,.05,0,0s0,0,0,0l0,.05a.08.08,0,0,1,0,0s0,0,0,0A1.25,1.25,0,0,1,68.33,20Z"/><path class="a" d="M80,3.48a2.91,2.91,0,0,1,.38,1,1.56,1.56,0,0,1-.1,1,3.29,3.29,0,0,1-.51.75,15,15,0,0,0-1,1.39c-.48.7-1.13,1.54-1.93,2.54a8.91,8.91,0,0,1-2,2c-.56.34-1,.43-1.25.29a1.5,1.5,0,0,1-.78-1.25,4.74,4.74,0,0,1,.56-2.57,16.1,16.1,0,0,1,1.4-2.59c.44-.65.75-1.08.91-1.29a9.71,9.71,0,0,0,.61-1,6.49,6.49,0,0,1,1.09-1.4q.68-.69,1.26-.48a1.9,1.9,0,0,1,1,.83ZM92.62,9.35a7.35,7.35,0,0,1-1.51.83c-.71.3-1.28.53-1.73.69a8.29,8.29,0,0,0-.87.34c-.08.53-.14,1.18-.19,2a24.74,24.74,0,0,0,0,2.73c.05,1,.11,2,.19,2.72s.15,1.42.19,1.95c-.11.46-.36.69-.74.67s-.9-.42-1.54-1.2A15.26,15.26,0,0,1,85,17.94c-.33-.61-.54-1-.6-1.13-.14.13-.37.32-.69.56a4.28,4.28,0,0,1-1.17.62,1.66,1.66,0,0,1-1.18.09,1.36,1.36,0,0,1-.69-.54,2.51,2.51,0,0,1-.38-.93,1.4,1.4,0,0,1,.18-1A6.18,6.18,0,0,1,81,14.7a3.91,3.91,0,0,0,.44-.77,3.42,3.42,0,0,1-.36.14l-.49.17-.48.17-.33.12a3,3,0,0,0-.08.39c0,.16,0,.33-.08.54s0,.37-.06.52,0,.28,0,.38a4,4,0,0,1-.76,1.72,1.18,1.18,0,0,1-1.49.4A2.18,2.18,0,0,1,76,17.07a4.77,4.77,0,0,1-.3-2,2.8,2.8,0,0,1,0-.48,2,2,0,0,1,.17-.53c.08-.18.15-.35.23-.5l.2-.42a2.69,2.69,0,0,0,.09-.5c0-.26,0-.58.06-1a3.79,3.79,0,0,1,.09-.84c0-.17.11-.27.17-.29a1.52,1.52,0,0,1,.83.12,1.82,1.82,0,0,1,.76.81c.22.41.41.78.56,1.11a2.26,2.26,0,0,0,.45.68c.33-.19.76-.44,1.26-.76a16,16,0,0,0,1.68-1.2c.62-.49,1.15-.94,1.58-1.35s.79-.75,1.08-1l-.94,0a1.86,1.86,0,0,1-1-.3,1.76,1.76,0,0,1-.66-.72c-.14-.29-.26-.58-.36-.85a1.69,1.69,0,0,1-.43-1A3.31,3.31,0,0,1,82,4.19,2.82,2.82,0,0,1,83,2.77a1.41,1.41,0,0,1,1.06-.24,3,3,0,0,0,1.13.13,5.77,5.77,0,0,0,1.5-.33A14.12,14.12,0,0,1,88.3,1.9a4.47,4.47,0,0,1,1.27-.1,2.23,2.23,0,0,1,1.32.57,1.22,1.22,0,0,1,.27,1.27,7.87,7.87,0,0,1-.42,1.22c-.14.27-.16.42-.06.46a1.43,1.43,0,0,1,.83.59c.12.23-.05.48-.52.75a9,9,0,0,1-1.32.66,3.45,3.45,0,0,0-.77.38.49.49,0,0,0,.41.49,3.52,3.52,0,0,0,1.33.05,6,6,0,0,1,1.56,0,1.34,1.34,0,0,1,.88.46C93.08,8.89,92.93,9.1,92.62,9.35Zm-7,2.82-1,.43c-.4.16-.74.3-1,.43s-.53.21-.73.27a5.31,5.31,0,0,0,.12.64,1.72,1.72,0,0,0,.4.7.9.9,0,0,0,.66.32,1.91,1.91,0,0,0,.68-.12c.25-.1.42-.07.49.07a2.08,2.08,0,0,1,0,.94A1.91,1.91,0,0,0,85.4,17a1,1,0,0,0,.8.53c.12,0,.21-.19.28-.61a12.15,12.15,0,0,0,.08-2c0-.92,0-1.64-.08-2.17s-.06-.84-.06-.92ZM86.83,10V9.12l-.6.32c-.26.14-.56.31-.9.52a4.86,4.86,0,0,0-.83.59A4.07,4.07,0,0,0,84,11c-.1.11-.05.16.13.15a4.74,4.74,0,0,0,1-.32c.51-.19.9-.34,1.18-.47a3,3,0,0,1,.45-.17ZM88,5.22A6.41,6.41,0,0,0,88.76,4c.25-.47.27-.74,0-.81a1.5,1.5,0,0,0-1,.15,6,6,0,0,0-1.77,1.3,2.32,2.32,0,0,0-.79,1.63c0,.5.28.67.77.5a3.59,3.59,0,0,0,1.41-.95C87.54,5.76,87.71,5.56,88,5.22Zm.32,3.57v1a7.27,7.27,0,0,0,.78-.27c.26-.11.4-.24.41-.4s-.12-.27-.39-.37a5.57,5.57,0,0,0-.8-.22Zm4.3,7.36-.37-.09L91.88,16a1.45,1.45,0,0,1-.24-.1,3,3,0,0,1-1-.53,3.73,3.73,0,0,1-1.08-1.21c-.3-.51-.3-.86,0-1.06a1.92,1.92,0,0,1,1.24-.25l.46.07a3.64,3.64,0,0,1,.63.16,3.74,3.74,0,0,1,.58.22l.39.22a4,4,0,0,1,.7.63,1.93,1.93,0,0,1,.52,1,.73.73,0,0,1-.31.83,2,2,0,0,1-.93.27Z"/><path class="a" d="M123.36,10.43a4.48,4.48,0,0,1-1.61.12,11.45,11.45,0,0,1-1.79-.21,6.7,6.7,0,0,1-.88-.21,3.79,3.79,0,0,1-1.4-.83,11.85,11.85,0,0,1-1.48-1.65,9,9,0,0,0-1.43-1.56,3,3,0,0,0-1.27-.68A6.26,6.26,0,0,0,113,6a10.45,10.45,0,0,0-.71,1.11,6.53,6.53,0,0,0-.56,1.15,2.53,2.53,0,0,0-.15.69,3.13,3.13,0,0,0,.67-.23c.27-.12.59-.25.94-.38a3.59,3.59,0,0,1,1-.25,2.53,2.53,0,0,1,.75,0,4.14,4.14,0,0,1,.82.31c.27.15.4.32.4.53s-.13.37-.4.48a2.27,2.27,0,0,1-.82.19c-.21,0-.46.09-.74.17a3.58,3.58,0,0,0-.9.42,4,4,0,0,0-.78.63c-.2.22-.36.4-.47.54a.69.69,0,0,0,.23.11,1.82,1.82,0,0,0,.47.08l.48,0h.29l.18-.21a1.94,1.94,0,0,1,.29-.26.78.78,0,0,1,.35-.16h.31a1.12,1.12,0,0,0,.76.09c.32-.06.73-.16,1.22-.3a2.51,2.51,0,0,1,1.31-.09,2,2,0,0,1,1,.52,1.2,1.2,0,0,1,.3.55.81.81,0,0,1-.18.63c-.16.22-.3.43-.41.61a.93.93,0,0,0-.15.52.67.67,0,0,1-.17.5,1.44,1.44,0,0,1-.66.42c-.31.12-.57.22-.79.29a1.3,1.3,0,0,0-.45.23,1.75,1.75,0,0,0,.12.27,2.61,2.61,0,0,1,.21.44,1.8,1.8,0,0,1,.12.47,1.22,1.22,0,0,1,0,.29A.51.51,0,0,0,117,17a3.15,3.15,0,0,0,1.18.55l1.51.48a2.9,2.9,0,0,1,.88.41c.09.1.24.26.44.5a4.68,4.68,0,0,1,.62,1,2.85,2.85,0,0,1,.32,1.1,1.09,1.09,0,0,1-.13.66c-.08.1-.37.06-.87-.1a14,14,0,0,1-2.16-1c-1-.51-1.69-.93-2.24-1.27s-.88-.55-1-.65l-.42.35c-.21.18-.5.41-.86.68a2.54,2.54,0,0,1-.86.49c-.21,0-.33,0-.38-.1a1.65,1.65,0,0,1-.15-1,2.92,2.92,0,0,1,.65-1.26c.37-.45.68-.87.94-1.25a2.63,2.63,0,0,0,.46-1,1.76,1.76,0,0,1-.74-.18.85.85,0,0,1-.45-.51,6.83,6.83,0,0,1-.23-.73,3.35,3.35,0,0,0-.24-.62,1,1,0,0,0-.17.29,1.41,1.41,0,0,0-.1.38c0,.15,0,.28,0,.4s0,.22,0,.3a.73.73,0,0,1-.23.29,3.73,3.73,0,0,1-.65.38c-.3.15-.54.25-.72.32L111,16a3.82,3.82,0,0,0-.29,1,1.14,1.14,0,0,0,.17.94c.17.22.41.24.72.05a3.77,3.77,0,0,0,.84-.77c.16-.21.29-.26.39-.14a2,2,0,0,1,0,1.1,8.52,8.52,0,0,1-.38,1.53,4.17,4.17,0,0,1-.32.73.43.43,0,0,1-.54,0,8.07,8.07,0,0,1-.81-.62.79.79,0,0,0-.91-.2,1.92,1.92,0,0,0-.77.87,1.9,1.9,0,0,1-.59.57,1,1,0,0,1-.92.07,1.06,1.06,0,0,1-.68-.64,1.53,1.53,0,0,1-.1-.82,2.16,2.16,0,0,1,.33-.9,4.08,4.08,0,0,1,.79-.93,12.22,12.22,0,0,0,.88-.85,3.29,3.29,0,0,0,.53-.76,1.27,1.27,0,0,1-.47-.33,1.61,1.61,0,0,1-.35-.65,5.09,5.09,0,0,1-.16-.75,4.76,4.76,0,0,0-.08-.55,9.9,9.9,0,0,1-1,.26,1.43,1.43,0,0,1-.93-.06c-.25-.12-.33-.34-.24-.67a4.13,4.13,0,0,1,.44-1c-.4-.4-.77-.55-1.11-.43s-.54.57-.58,1.37a4.2,4.2,0,0,0,.23,1.85c.19.43.37.6.53.51a.18.18,0,0,1,.17,0s.07.1.08.23a1.7,1.7,0,0,1,0,.33q0,.14,0,.15c0,.18-.12.56-.27,1.15a10.45,10.45,0,0,1-.82,2c-.39.76-.78,1.17-1.16,1.24a.86.86,0,0,1-.92-.42,5.93,5.93,0,0,1-.92-2.18,11.38,11.38,0,0,1-.15-3.51c.12-1.4.27-2.61.45-3.62a22.05,22.05,0,0,0,.35-2.38,2.51,2.51,0,0,1,.3-1,1.27,1.27,0,0,1,.85-.67.82.82,0,0,1,.91.27,2.13,2.13,0,0,1,.45.9,2.71,2.71,0,0,0,.42,1,1.2,1.2,0,0,0,.74.6c.28.07.43,0,.45-.23a1.29,1.29,0,0,0-.17-.68,3.42,3.42,0,0,1-.27-.63,5.32,5.32,0,0,1-.2-1.1,4.63,4.63,0,0,1,0-1.13,3.3,3.3,0,0,1,.17-.68c0-.11-.16-.23-.48-.35a9.07,9.07,0,0,1-1-.47c-.37-.19-.45-.42-.24-.68a3.63,3.63,0,0,1,1.12-.81A5.12,5.12,0,0,1,107,2.72a3.24,3.24,0,0,1,1.94.35c.61.31.81.72.61,1.24a3.46,3.46,0,0,1-1.1,1.39,2.36,2.36,0,0,0-.66.79,1.88,1.88,0,0,0-.16,1.22,3.35,3.35,0,0,0,.46,1.23,9.72,9.72,0,0,0,.6.83l.6-1.47c.24-.59.53-1.28.87-2.06s.63-1.46.89-2l.65-1.48a2.62,2.62,0,0,1,.91-1.08A1.37,1.37,0,0,1,114,1.47a1.17,1.17,0,0,1,.83.73.74.74,0,0,1-.08.69c-.17.17-.07.51.31,1a10.1,10.1,0,0,0,2.18,1.86,28.81,28.81,0,0,0,2.71,1.7c.72.37,1.18.59,1.37.66l.63.24a4.29,4.29,0,0,1,.84.44,3,3,0,0,1,.71.63,5.62,5.62,0,0,1,.4.56Q123.87,10.25,123.36,10.43Zm-12.83.36q-.14.23-.3.54c-.12.21-.21.39-.29.55s-.15.29-.19.39a4.59,4.59,0,0,1,.46-.29,3.59,3.59,0,0,0,.75-.6c.25-.26.34-.47.27-.64a.68.68,0,0,0-.47-.35C110.69,10.5,110.62,10.64,110.53,10.79Zm.88,3.11a3.24,3.24,0,0,0,.38-.5c.13-.21.16-.34.08-.39a.45.45,0,0,0-.37,0,2.47,2.47,0,0,0-.85.51,1.27,1.27,0,0,0-.47.74c0,.24.07.33.3.26a1.76,1.76,0,0,0,.71-.43Zm4.88-.55a1.27,1.27,0,0,0,.36-.34.8.8,0,0,0,.19-.41.71.71,0,0,0,0-.33c-.1-.23-.31-.28-.64-.17a2,2,0,0,0-1,.82c-.31.43-.37.7-.18.8s.5,0,.94-.2A2.06,2.06,0,0,0,116.29,13.35Z"/><path class="a" d="M152.8,13.59a4.91,4.91,0,0,1-2.27.37,19.35,19.35,0,0,1-2.54-.15,11.82,11.82,0,0,0-1.35-.15c-.1.21-.23.46-.39.76s-.35.64-.58,1l-.58,1c-.17.29-.3.53-.4.72a7.3,7.3,0,0,0,1.39.83c.66.33,1.46.75,2.41,1.26a6.71,6.71,0,0,1,2,1.51,2.15,2.15,0,0,1,.6,1.31c0,.28-.32.4-.92.34a10,10,0,0,1-2.82-.95q-1.91-.86-3-1.5L143,19.24q-.65.51-1.53,1.11a6.62,6.62,0,0,1-2.05.91,5.53,5.53,0,0,1-2.22.17,14.13,14.13,0,0,1-1.85-.36,6.91,6.91,0,0,1-1.14-.48,1.7,1.7,0,0,1-.85-.76c-.13-.28,0-.45.4-.52a4.62,4.62,0,0,1,1.38,0,5.12,5.12,0,0,0,1.08,0,6.79,6.79,0,0,0,1.57-.38,15.49,15.49,0,0,0,1.53-.62l1-.51a4.36,4.36,0,0,0-1.05-.31,2.45,2.45,0,0,1-.88-.32,1.06,1.06,0,0,1-.42-.78c-.06-.37-.1-.79-.13-1.26l-1.12.25c-.46.11-1,.25-1.61.43a11.33,11.33,0,0,0-1.55.59,6,6,0,0,0-1,.58,1.93,1.93,0,0,1-.5.27,1,1,0,0,1-.65,0A.81.81,0,0,1,131,17a1.08,1.08,0,0,1-.2-.52,1.27,1.27,0,0,1,.2-.93,2.28,2.28,0,0,1,1.13-.85,7.09,7.09,0,0,1,1.51-.49c.45-.09.78-.17,1-.23l1-.26c.41-.1.89-.24,1.44-.4l1.44-.46,1-.35a8,8,0,0,0,.17-.84c.07-.39.15-.86.24-1.43a8.31,8.31,0,0,1,.33-1.35,2.16,2.16,0,0,1,.35-.69l-.17.06-.23.09-.24.08a.45.45,0,0,1-.18,0,2.71,2.71,0,0,0-.94.44,1.47,1.47,0,0,0-.55.86c-.1.37-.2.71-.3,1a1.87,1.87,0,0,1-.45.77,2.43,2.43,0,0,1-1.55.77,1.73,1.73,0,0,1-1.61-.86,2.94,2.94,0,0,1-.67-1.86A2,2,0,0,1,134,8.35,5.35,5.35,0,0,0,134.85,7,9.23,9.23,0,0,1,136,5.26c.42-.54.86-.65,1.3-.34a4.62,4.62,0,0,1,1.24,1.48c0,.06.14.08.34.06a2.94,2.94,0,0,0,.83-.29c.36-.17.63-.31.82-.42l.36-.22c0-.35,0-.84,0-1.47a6,6,0,0,1,.33-2,2,2,0,0,1,1-1.35,2.73,2.73,0,0,1,1.43-.2,1.78,1.78,0,0,1,.45.75,3.47,3.47,0,0,1,.13,1.33A9.86,9.86,0,0,1,144.05,4a5.11,5.11,0,0,0-.1.86,1.5,1.5,0,0,0,.37-.13l.54-.23a2.41,2.41,0,0,1,.55-.15,1.49,1.49,0,0,1,.41,0,2.57,2.57,0,0,1,1.29,0,4.45,4.45,0,0,1,1.9.82c.65.45,1,.88.9,1.27a1,1,0,0,1-.67.83,8.84,8.84,0,0,1-.74.81,4.39,4.39,0,0,1-1.31.87,2.47,2.47,0,0,1-1.45.29,1.87,1.87,0,0,1-1-.41l.1-.06.16-.1.18-.13.16-.09a3.28,3.28,0,0,0,1.17-1.32c.21-.5.05-.83-.49-1a2,2,0,0,0-1.67.35,3.19,3.19,0,0,0-1.18,1.3c-.07.19-.19.45-.33.78a12.46,12.46,0,0,0-.45,1.23,10.23,10.23,0,0,0-.31,1.25,6.07,6.07,0,0,0-.08.8.93.93,0,0,0,.38,0,.83.83,0,0,0,.45-.19,2.58,2.58,0,0,0,.37-.37,3.72,3.72,0,0,1,.26-.34.94.94,0,0,1,.52-.24,2.32,2.32,0,0,1,1,.09,7.39,7.39,0,0,1,1,.35l.57.26a9.79,9.79,0,0,0,1.5-.11,19.52,19.52,0,0,1,2.36-.15,4,4,0,0,1,2.11.45,2.53,2.53,0,0,1,1.05,1.06A1.31,1.31,0,0,1,152.8,13.59Zm-10.51,2.07a2.93,2.93,0,0,0,.45-1c.08-.33,0-.51-.31-.53a3,3,0,0,0-1,.17,6,6,0,0,0-.32.54,1.3,1.3,0,0,0-.14.7.73.73,0,0,0,.29.57,1.73,1.73,0,0,0,.57.26C141.9,16.22,142.06,16,142.29,15.66Z"/><path class="a" d="M177.71,5.35a7.19,7.19,0,0,1-2.53,1.43,11.57,11.57,0,0,1-2.8.8q-1,.09-1-.12l.39-.3c.28-.2.64-.5,1.1-.89a5.07,5.07,0,0,0,.84-.86c.1-.17.07-.25-.08-.24s-.54.17-1.23.42-1.62.64-2.78,1.16A26.24,26.24,0,0,0,167,8q-.81.48-.78.6a1.57,1.57,0,0,1-.23.72,7,7,0,0,1-.9,1.27A12.59,12.59,0,0,1,164,11.75a5.13,5.13,0,0,1-.64.49,7.63,7.63,0,0,1-.76.36.87.87,0,0,1-.74,0,1.3,1.3,0,0,1-.58-.56c-.15-.26-.28-.52-.4-.78A3.45,3.45,0,0,1,160.8,9a6.11,6.11,0,0,1,1.62-2.79c.86-.89,1.54-1.34,2-1.34s.74.21.74.63a.88.88,0,0,0,.4.76,1.71,1.71,0,0,0,1.31.06,7.11,7.11,0,0,0,1.51-.52l.82-.4a2.14,2.14,0,0,1-.44-.11,1.13,1.13,0,0,1-.49-.27.39.39,0,0,1-.14-.44,1.18,1.18,0,0,1,.28-.43,1.91,1.91,0,0,0,.46-.82,1.08,1.08,0,0,0-.12-.86c-.16-.27-.29-.49-.4-.65s-.13-.3-.06-.41.36-.33.79-.36a3.4,3.4,0,0,1,1.67.46,3.81,3.81,0,0,1,1.45,1.07,1.32,1.32,0,0,1,.37.85,1.6,1.6,0,0,1-.07.19c0,.08-.07.18-.1.28a1.77,1.77,0,0,0-.06.28,1.42,1.42,0,0,0,0,.19A6.38,6.38,0,0,0,173.61,4a13.08,13.08,0,0,1,1.69-.46,3.66,3.66,0,0,1,1.69,0,3.72,3.72,0,0,1,1.22.56C178.36,4.47,178.19,4.86,177.71,5.35Zm5.07,15.1a4.63,4.63,0,0,1-1.36.45,10.76,10.76,0,0,1-1.53.23l-.76,0a11.21,11.21,0,0,1-2.68-.4,16.25,16.25,0,0,1-3.63-1.46c-1.36-.7-2.52-1.35-3.48-1.94S167.59,16.32,167,16l-.91,1a26.58,26.58,0,0,1-2.32,2.3,4.61,4.61,0,0,1-2.23,1.38c-.48,0-.72-.24-.72-.78a2.5,2.5,0,0,1,.57-1.43,8.61,8.61,0,0,1,1.72-1.68,9.83,9.83,0,0,0,1.75-1.69,2.77,2.77,0,0,0,.65-1.43.81.81,0,0,1,.4-.68,1,1,0,0,1,1,.1,1.88,1.88,0,0,1,.84.77c.14.29.16.5.08.63a.29.29,0,0,0,0,.35,1,1,0,0,0,.55.31,4.53,4.53,0,0,0,.72.17l.37,0a.74.74,0,0,0,.07-.27,1.83,1.83,0,0,0,0-.41v-.39a.77.77,0,0,1,.07-.27,2.42,2.42,0,0,0,.26-1.28c-.05-.35-.33-.58-.86-.68s-1-.24-1.49-.39a1.74,1.74,0,0,1-1-.68c-.08-.12,0-.28.28-.51a7.29,7.29,0,0,1,1.48-.8c.72-.32,1.29-.58,1.74-.8a2.79,2.79,0,0,0,.8-.49c.16-.21.54-.33,1.14-.35a3.57,3.57,0,0,1,1.84.48c.63.35.84.68.64,1a1.83,1.83,0,0,1-1.24.71,1.85,1.85,0,0,0-.58.29,1.52,1.52,0,0,0-.46.66,2.32,2.32,0,0,0-.2.83c0,.26,0,.47,0,.63a3,3,0,0,0,.7-.68,4.13,4.13,0,0,1,.64-.67.7.7,0,0,1,.79-.06,6.46,6.46,0,0,1,1,.56.56.56,0,0,1,.26.67c-.08.26-.41.53-1,.8a10.16,10.16,0,0,1-1.56.59l-.82.23v2.26c.39.24.87.51,1.47.81a16.24,16.24,0,0,0,2.13.85,15.49,15.49,0,0,0,2.22.57,16.09,16.09,0,0,0,1.69.18l.71.06a11.81,11.81,0,0,1,1.37.18,3.28,3.28,0,0,1,1.22.39.85.85,0,0,1,.45.52C183.22,20.1,183.08,20.27,182.78,20.45Z"/><path class="a" d="M210,18.57a6.39,6.39,0,0,1-3.05-1.44,17.24,17.24,0,0,1-2.55-2.47,23.08,23.08,0,0,0-1.79-2A6.78,6.78,0,0,0,199.76,14a15,15,0,0,0-3,3.13A29.77,29.77,0,0,1,194,20.43a6.89,6.89,0,0,1-2.4,1.68,1.49,1.49,0,0,1-.95,0,1,1,0,0,1-.65-.79,1,1,0,0,1,.28-1,1.32,1.32,0,0,1,.89-.36,2.43,2.43,0,0,0,1.06-.44,6.63,6.63,0,0,0,1.42-1.38,13.88,13.88,0,0,0,1.19-1.67l.61-1.06a4.46,4.46,0,0,0-1.18.21,9.34,9.34,0,0,1-1.76.31c-.64.06-1-.1-1.06-.45a2.16,2.16,0,0,1,.27-1.34.74.74,0,0,1,.28-.5,1.13,1.13,0,0,1,.79-.29.8.8,0,0,1,.7.2.46.46,0,0,1,.09.47c-.05.13.09.17.43.12a10.73,10.73,0,0,0,1.67-.48c.78-.27,1.38-.5,1.8-.67l.69-.29a2.73,2.73,0,0,0-.16-.44l-.26-.6c-.11-.22-.2-.42-.27-.59a2.55,2.55,0,0,1-.15-.44,4.16,4.16,0,0,1-.18-.81,8.43,8.43,0,0,1-.1-1.25c0-.49,0-.91,0-1.26s0-.64,0-.87c-.14,0-.43-.12-.84-.26A6.12,6.12,0,0,1,195,5.54c-.43-.26-.58-.48-.45-.67a1.39,1.39,0,0,1,.82-.42l.41-.1.65-.19c.25-.08.48-.13.66-.17a2.74,2.74,0,0,1,.45,0c0-.2,0-.48,0-.86a5.13,5.13,0,0,1,.16-1.23,1.2,1.2,0,0,1,.6-.86,1.64,1.64,0,0,1,.89-.16,1.61,1.61,0,0,1,.76.35,1.34,1.34,0,0,1,.43.76,3.46,3.46,0,0,0,.23.71.34.34,0,0,0,.36.2,2.27,2.27,0,0,0,1.24-.35,1.35,1.35,0,0,0,.6-1,2.86,2.86,0,0,1,.36-1A1.1,1.1,0,0,1,204,0a1,1,0,0,1,.61.42,1.77,1.77,0,0,1,.2.9,1.74,1.74,0,0,0,.23.94,1,1,0,0,0,.66.46,3,3,0,0,1,1.28.57c.22.23.09.48-.4.76s-.93.52-1.33.72-.61.38-.61.52c0,.29,0,.66,0,1.1s-.08,1-.15,1.55-.11,1.11-.16,1.55-.06.81-.08,1.09a2.08,2.08,0,0,0,.69-.25c.29-.15.66-.32,1.1-.52a2.53,2.53,0,0,1,1.1-.26,1.16,1.16,0,0,1,.67.22c0,.12-.06.31-.27.56a5.27,5.27,0,0,1-1.17.88,13.16,13.16,0,0,1-1.41.76l-.71.3c.24.33.58.75,1,1.25a12.19,12.19,0,0,0,1.66,1.57,9.86,9.86,0,0,0,1.9,1.26,9.37,9.37,0,0,0,1.48.58l.53.16a9.79,9.79,0,0,1,1.14.43,2.17,2.17,0,0,1,.87.56c.12.16.11.3,0,.39A7.47,7.47,0,0,1,210,18.57ZM208,21a1.33,1.33,0,0,1-.47.24,3.88,3.88,0,0,1-1,.17c-.4,0-.73.05-1,.05h-.53c-.38,0-.87,0-1.45,0a15.12,15.12,0,0,0-2,.28c-.76.15-1.43.31-2,.48s-1,.32-1.37.45a6.91,6.91,0,0,1-.73-.2,3.55,3.55,0,0,1-1.06-.54c-.35-.25-.46-.46-.35-.62a.93.93,0,0,1,.67-.33l.92-.15a7,7,0,0,0,1.42-.46,2.6,2.6,0,0,0,1.1-.81,1.48,1.48,0,0,0,.31-.84l-.56-.22a8.22,8.22,0,0,1-1.14-.55c-.44-.24-.65-.43-.64-.58s.16-.24.47-.29a2.56,2.56,0,0,0,1.33-.57,2.6,2.6,0,0,0,.83-1.27,4.89,4.89,0,0,1,.48-1.15.76.76,0,0,1,.68-.37,4.37,4.37,0,0,1,.61.31A11,11,0,0,1,204,15a3,3,0,0,1,1,1.14c.1.3,0,.49-.23.57a2.5,2.5,0,0,0-.64.37,1.68,1.68,0,0,0-.52.76,2.61,2.61,0,0,0-.2.94c0,.28,0,.52,0,.72.1,0,.39,0,.88,0a14.78,14.78,0,0,1,1.88.27,3.91,3.91,0,0,1,1.56.56c.28.21.37.41.28.59Zm-5.8-10.43a.61.61,0,0,0-.64-.27,2.75,2.75,0,0,0-.87.17,3,3,0,0,1-.63.16,2.12,2.12,0,0,0-.16,1c.05.27.25.38.62.33a3.47,3.47,0,0,0,1.07-.32,6.8,6.8,0,0,1,.78-.35A1.31,1.31,0,0,0,202.19,10.52Zm.23-4.72a.53.53,0,0,0-.59-.21,3.16,3.16,0,0,0-.79.22,4,4,0,0,1-.56.2.68.68,0,0,0,0,.58c.08.16.3.23.65.21a3.77,3.77,0,0,0,.9-.18l.53-.2A1.21,1.21,0,0,0,202.42,5.8ZM202.58,9V7.7a2.69,2.69,0,0,0-.46.17,5.31,5.31,0,0,1-.61.22,1.07,1.07,0,0,1-.6.05.86.86,0,0,1-.43-.23,2.75,2.75,0,0,0,0,.81.69.69,0,0,0,.47.52,2.4,2.4,0,0,0,.85.13h.78Z"/><path class="a" d="M240.13,11.38a3.13,3.13,0,0,1-2.8-.54A9.45,9.45,0,0,1,235,8.48a28,28,0,0,0-1.71-2.25,8.47,8.47,0,0,0-1.14-1.09,1.67,1.67,0,0,0-1.38-.41,2.37,2.37,0,0,0-1.37.74c-.42.43-.79.83-1.11,1.22A17.69,17.69,0,0,0,227,8.44a35.9,35.9,0,0,1-2.43,3.19,9.59,9.59,0,0,1-2.81,2.48,2.5,2.5,0,0,1-2,.32c-.43-.16-.59-.52-.46-1.07a5.38,5.38,0,0,1,1.56-2.23c.92-.94,1.7-1.68,2.34-2.21s1-.85,1.14-1q.38-.48.93-1.29c.37-.54.79-1.17,1.27-1.89s.9-1.33,1.31-1.84a13.34,13.34,0,0,1,1.06-1.21,4.7,4.7,0,0,1,1.29-.95.66.66,0,0,1,1,.35,9,9,0,0,1,.62,1.33,2.38,2.38,0,0,0,.62,1c.29.29.68.66,1.18,1.11s1.11,1,1.85,1.53a18.53,18.53,0,0,0,2,1.35,10.68,10.68,0,0,0,1.43.7,5.55,5.55,0,0,0,.71.24c.41.13.95.33,1.61.58a7,7,0,0,1,1.36.65c.25.18.33.3.25.36A8.21,8.21,0,0,1,240.13,11.38Zm-2.44,8.14a1,1,0,0,1-.17,1.11,2.15,2.15,0,0,1-1.23.84,3.3,3.3,0,0,1-1.32.11,3.89,3.89,0,0,0-2.21-.17c-1.24.09-2.84.24-4.82.43a9,9,0,0,1-4.08-.22c-.74-.33-1-.82-.7-1.46a3.17,3.17,0,0,1,.23-.44.93.93,0,0,1,.44-.36.89.89,0,0,1,.55-.05,2,2,0,0,1,.44.2,1.4,1.4,0,0,0,.8.15,4,4,0,0,0,1.4-.35,14.79,14.79,0,0,0,1.41-.62l.79-.41a1.08,1.08,0,0,0-.09-.67c-.08-.1-.28,0-.6.29a4.48,4.48,0,0,1-1,.68,1.11,1.11,0,0,1-.9.11,2.58,2.58,0,0,1-.88-.48,1,1,0,0,1-.36-.88,4.13,4.13,0,0,1,.16-1.07,3.11,3.11,0,0,0,.14-.87,1.86,1.86,0,0,1-.84-1.19q-.09-.63,1-1.2a12.08,12.08,0,0,1,2-.86,5,5,0,0,0,1.21-.52,1,1,0,0,0-.07-.47.71.71,0,0,0-.38-.36,5.85,5.85,0,0,0-.56-.22,1.43,1.43,0,0,1-.41-.18c-.4-.22-.6-.46-.59-.71s.34-.48,1-.7l1.61-.51c.43-.13.66-.25.7-.36s.34-.3.91-.33a3.85,3.85,0,0,1,2,.56c.73.39,1,.82.8,1.3a2.38,2.38,0,0,1-1.41,1.18.85.85,0,0,0,.48.51,3.6,3.6,0,0,0,1,.3,1.77,1.77,0,0,1,.85.32.53.53,0,0,1,.19.51,1.09,1.09,0,0,1-.53.79,8,8,0,0,1-1.25.68A2.37,2.37,0,0,0,232.1,15a3.46,3.46,0,0,0-.38,1.6,1.67,1.67,0,0,0,.29-.1,2.35,2.35,0,0,0,.44-.2,2.92,2.92,0,0,0,.39-.26l.26-.23a.73.73,0,0,0,.15-.57,4.85,4.85,0,0,1,0-.65c0-.2.18-.29.53-.27a7.48,7.48,0,0,1,1.28.19,2.14,2.14,0,0,1,.88,1.18c.12.45-.13.86-.74,1.25a5.14,5.14,0,0,1-1.89.73,9.16,9.16,0,0,1-1.37.16,1.05,1.05,0,0,0,0,.62c0,.18.21.27.49.28a3,3,0,0,0,.8-.08,3,3,0,0,1,.56-.12l.66,0a6.52,6.52,0,0,1,.94,0,8.25,8.25,0,0,1,.93.15l.65.17A1.46,1.46,0,0,1,237.69,19.52ZM229,15.63a.74.74,0,0,0-.7-.33,3.69,3.69,0,0,0-1,.12,3.71,3.71,0,0,1-.68.14,1.56,1.56,0,0,0,.27.65,1.23,1.23,0,0,0,.71.48,1.51,1.51,0,0,0,.89,0,2,2,0,0,0,.65-.33A1.49,1.49,0,0,0,229,15.63Z"/></svg>